<?xml version="1.0" standalone="no"?>
<!DOCTYPE svg PUBLIC "-//W3C//DTD SVG 20010904//EN"
 "http://www.w3.org/TR/2001/REC-SVG-20010904/DTD/svg10.dtd">
<svg version="1.0" xmlns="http://www.w3.org/2000/svg"
 width="500.000000pt" height="500.000000pt" viewBox="0 0 500.000000 500.000000"
 preserveAspectRatio="xMidYMid meet">
<metadata>
Created by potrace 1.11, written by Peter Selinger 2001-2013
</metadata>
<g transform="translate(0.000000,500.000000) scale(0.100000,-0.100000)"
fill="#000000" stroke="none">
<path d="M383 4986 c-181 -44 -334 -202 -372 -384 -16 -75 -16 -4129 0 -4204
39 -187 200 -348 387 -387 75 -16 4129 -16 4204 0 187 39 348 200 387 387 16
75 16 4129 0 4204 -39 187 -200 348 -387 387 -81 17 -4148 14 -4219 -3z m2382
-856 c77 -6 180 -17 230 -25 432 -74 665 -328 726 -790 17 -131 6 -425 -20
-538 -86 -374 -323 -604 -706 -687 -82 -18 -145 -23 -352 -27 l-253 -5 0 -649
0 -649 -400 0 -400 0 0 1690 0 1690 518 0 c284 0 580 -5 657 -10z"/>
<path d="M2390 3112 l0 -421 36 -7 c55 -10 193 3 265 26 117 36 177 96 220
221 18 52 22 87 23 194 1 154 -14 209 -76 280 -70 79 -164 112 -353 122 l-115
6 0 -421z"/>
</g>
</svg>
